<?xml version="1.0" encoding="UTF-8"?>
<svg width="114px" height="32px" viewBox="0 0 114 32" version="1.1" xmlns="http://www.w3.org/2000/svg" xmlns:xlink="http://www.w3.org/1999/xlink">
    <!-- Generator: Sketch 54.1 (76490) - https://sketchapp.com -->
    <title>logo</title>
    <desc>Created with Sketch.</desc>
    <g id="Symbols" stroke="none" stroke-width="1" fill="none" fill-rule="evenodd">
        <g id="elements/menu" transform="translate(-8.000000, -3.000000)">
            <g id="menu" transform="translate(8.000000, 0.000000)">
                <g id="logo" transform="translate(0.000000, 3.000000)">
                    <g id="logo/white">
                        <g id="Group" stroke-width="1" fill-rule="evenodd" fill="#FBFCFF">
                            <path d="M17.9090909,28.1818182 C25.6912851,28.1818182 32,21.8731033 32,14.0909091 C32,6.30871489 25.6912851,0 17.9090909,0 C10.1268967,0 3.81818182,6.30871489 3.81818182,14.0909091 C3.81818182,21.8731033 10.1268967,28.1818182 17.9090909,28.1818182 Z M18,19.0909091 C20.9120469,19.0909091 23.2727273,16.7302287 23.2727273,13.8181818 C23.2727273,10.906135 20.9120469,8.54545455 18,8.54545455 C15.0879531,8.54545455 12.7272727,10.906135 12.7272727,13.8181818 C12.7272727,16.7302287 15.0879531,19.0909091 18,19.0909091 Z" id="Combined-Shape"></path>
                            <circle id="Oval-Copy-2" cx="7.72727273" cy="24.2727273" r="7.72727273"></circle>
                        </g>
                        <path d="M15.5775935,14.6101537 C17.5643787,13.3214281 19.1817214,13.3214281 20.6176063,14.5521866 C20.9225705,14.8135845 21.3816978,14.7782671 21.6430957,14.4733028 C21.9044936,14.1683386 21.8691762,13.7092113 21.5642119,13.4478134 C19.6061574,11.769481 17.2841061,11.769481 14.7860428,13.3898463 C14.4490643,13.608427 14.3530838,14.0587968 14.5716645,14.3957753 C14.7902452,14.7327539 15.240615,14.8287344 15.5775935,14.6101537 Z" id="Path-3" fill="#52E5E7" fill-rule="nonzero"></path>
                    </g>
                    <path d="M45.1978211,8 C46.1878872,8 47.0365026,8.23239204 47.7436927,8.6971831 C48.4508827,9.16197415 48.9529802,9.78872845 49.25,10.5774648 L49.25,8.14788732 L52.2201835,8.14788732 L52.2201835,19.8521127 L49.25,19.8521127 L49.25,17.4014085 C48.9529802,18.1901448 48.4508827,18.8204202 47.7436927,19.2922535 C47.0365026,19.7640869 46.1878872,20 45.1978211,20 C44.207755,20 43.3167089,19.7605658 42.524656,19.2816901 C41.7326031,18.8028145 41.113821,18.1091595 40.6682913,17.2007042 C40.2227615,16.292249 40,15.2253582 40,14 C40,12.7746418 40.2227615,11.707751 40.6682913,10.7992958 C41.113821,9.89084053 41.7326031,9.19718549 42.524656,8.71830986 C43.3167089,8.23943423 44.207755,8 45.1978211,8 Z M46.4391145,10.6666667 C45.5215535,10.6666667 44.7847352,10.9643445 44.2286376,11.5597092 C43.67254,12.1550739 43.3944954,12.9719574 43.3944954,14.0103842 C43.3944954,15.048811 43.67254,15.8622331 44.2286376,16.450675 C44.7847352,17.0391168 45.5215535,17.3333333 46.4391145,17.3333333 C47.3288707,17.3333333 48.0622134,17.0321941 48.6391646,16.4299065 C49.2161159,15.827619 49.5045872,15.0211196 49.5045872,14.0103842 C49.5045872,12.9858031 49.2161159,12.172381 48.6391646,11.5700935 C48.0622134,10.9678059 47.3288707,10.6666667 46.4391145,10.6666667 Z M58.3302752,4 L58.3302752,20 L54.9357798,20 L54.9357798,4 L58.3302752,4 Z M63.7614679,16.6666667 L63.7614679,20 L60.3669725,20 L60.3669725,16.6666667 L63.7614679,16.6666667 Z M71.9082569,17.4317414 L71.9082569,20 L70.2971086,20 C68.9472209,20 67.9130482,19.681624 67.1945596,19.0448625 C66.476071,18.408101 66.1168321,17.3468478 66.1168321,15.8610709 L66.1168321,10.7670043 L64.440367,10.7670043 L64.440367,8.24119633 L66.1168321,8.24119633 L66.1168321,5.33333333 L69.1867227,5.33333333 L69.1867227,8.24119633 L71.8864846,8.24119633 L71.8864846,10.7670043 L69.1867227,10.7670043 L69.1867227,15.9035215 C69.1867227,16.4695317 69.3028403,16.8657329 69.535079,17.092137 C69.7673178,17.3185411 70.1592148,17.4317414 70.7107818,17.4317414 L71.9082569,17.4317414 Z M76.6605505,16.6666667 L76.6605505,20 L73.266055,20 L73.266055,16.6666667 L76.6605505,16.6666667 Z M86.3985092,7.83400268 C87.3885753,7.83400268 88.2796214,8.07674902 89.0716743,8.562249 C89.8637272,9.04774897 90.4825092,9.75099941 90.928039,10.6720214 C91.3735687,11.5930434 91.5963303,12.6746926 91.5963303,13.9170013 C91.5963303,15.1593101 91.3735687,16.2409593 90.928039,17.1619813 C90.4825092,18.0830033 89.8637272,18.7862537 89.0716743,19.2717537 C88.2796214,19.7572537 87.3885753,20 86.3985092,20 C85.4084431,20 84.5633636,19.7608235 83.8632454,19.2824632 C83.1631272,18.8041029 82.6645657,18.1651089 82.3675459,17.3654618 L82.3675459,19.8500669 L79.3761468,19.8500669 L79.3761468,4 L82.3675459,4 L82.3675459,10.4471218 C82.6645657,9.64747481 83.1631272,9.01205055 83.8632454,8.54082999 C84.5633636,8.06960942 85.4084431,7.83400268 86.3985092,7.83400268 Z M85.1572158,10.6666667 C84.2674596,10.6666667 83.5341169,10.9678059 82.9571657,11.5700935 C82.3802144,12.172381 82.0917431,12.9858031 82.0917431,14.0103842 C82.0917431,15.0211196 82.3802144,15.827619 82.9571657,16.4299065 C83.5341169,17.0321941 84.2674596,17.3333333 85.1572158,17.3333333 C86.0747768,17.3333333 86.8115951,17.0391168 87.3676926,16.450675 C87.9237902,15.8622331 88.2018349,15.048811 88.2018349,14.0103842 C88.2018349,12.9719574 87.9237902,12.1550739 87.3676926,11.5597092 C86.8115951,10.9643445 86.0747768,10.6666667 85.1572158,10.6666667 Z M99.0642202,8 C100.226004,8 101.269442,8.23943423 102.194566,8.71830986 C103.119691,9.19718549 103.847587,9.89084053 104.378279,10.7992958 C104.90897,11.707751 105.174312,12.7746418 105.174312,14 C105.174312,15.2253582 104.90897,16.2887279 104.378279,17.1901408 C103.847587,18.0915538 103.119691,18.7852088 102.194566,19.2711268 C101.269442,19.7570447 100.226004,20 99.0642202,20 C97.9024364,20 96.858998,19.7570447 95.9338739,19.2711268 C95.0087497,18.7852088 94.2808529,18.0915538 93.7501615,17.1901408 C93.2194701,16.2887279 92.9541284,15.2253582 92.9541284,14 C92.9541284,12.7746418 93.2194701,11.707751 93.7501615,10.7992958 C94.2808529,9.89084053 95.0087497,9.19718549 95.9338739,8.71830986 C96.858998,8.23943423 97.9024364,8 99.0642202,8 Z M99.4036697,10.6666667 C98.5514304,10.6666667 97.8292046,10.9513003 97.2369705,11.5205761 C96.6447364,12.089852 96.3486239,12.9163183 96.3486239,14 C96.3486239,15.0836817 96.6447364,15.910148 97.2369705,16.4794239 C97.8292046,17.0486997 98.5514304,17.3333333 99.4036697,17.3333333 C100.255909,17.3333333 100.978135,17.0486997 101.570369,16.4794239 C102.162603,15.910148 102.458716,15.0836817 102.458716,14 C102.458716,12.9163183 102.162603,12.089852 101.570369,11.5205761 C100.978135,10.9513003 100.255909,10.6666667 99.4036697,10.6666667 Z M114,17.4317414 L114,20 L112.388852,20 C111.038964,20 110.004791,19.681624 109.286303,19.0448625 C108.567814,18.408101 108.208575,17.3468478 108.208575,15.8610709 L108.208575,10.7670043 L106.53211,10.7670043 L106.53211,8.24119633 L108.208575,8.24119633 L108.208575,5.33333333 L111.278466,5.33333333 L111.278466,8.24119633 L113.978228,8.24119633 L113.978228,10.7670043 L111.278466,10.7670043 L111.278466,15.9035215 C111.278466,16.4695317 111.394583,16.8657329 111.626822,17.092137 C111.859061,17.3185411 112.250958,17.4317414 112.802525,17.4317414 L114,17.4317414 Z" id="al.t.bot" fill="#FBFCFF" fill-rule="nonzero"></path>
                </g>
            </g>
        </g>
    </g>
</svg>